<svg width="504" height="504" viewBox="0 0 504 504" fill="none" xmlns="http://www.w3.org/2000/svg">
<g clip-path="url(#clip0_106_27)">
<path d="M252 504C391.176 504 504 391.176 504 252C504 112.824 391.176 0 252 0C112.824 0 0 112.824 0 252C0 391.176 112.824 504 252 504Z" fill="#FFBB00"/>
<path d="M374.1 290.1C352.6 290.1 335.1 307.6 335.1 329.1C335.1 350.6 352.6 368.1 374.1 368.1C395.6 368.1 413.1 350.6 413.1 329.1C413.2 307.6 395.7 290.1 374.1 290.1Z" fill="#111111"/>
<path d="M141 290.1C119.5 290.1 102 307.6 102 329.1C102 350.6 119.5 368.1 141 368.1C162.5 368.1 180 350.6 180 329.1C180 307.6 162.5 290.1 141 290.1Z" fill="#111111"/>
<path d="M318.3 109.8H346.8C353.1 109.8 358.2 104.7 358.2 98.4C358.2 92.1 353.1 87 346.8 87H257.5C251.2 87 246.1 92.1 246.1 98.4C246.1 104.7 251.2 109.8 257.5 109.8H294.6L334 258.7L303 289.6H206.7C197.2 263.6 169.8 244.3 140.3 244.3C103 244.3 70.3 274.4 70.3 308.8C70.3 315.1 75.4 320.2 81.7 320.2C88 320.2 93.1 315.1 93.1 308.8C93.1 289.1 113.3 267.1 140.3 267.1C164.9 267.1 183.7 285.8 186.9 303.1C187.9 308.6 192.9 312.4 198.3 312.4C198.5 312.4 198.8 312.5 199 312.5H307.7C310.7 312.5 313.6 311.3 315.8 309.2L354.8 270.2C357.8 267.3 358.9 262.9 357.7 258.9L318.3 109.8Z" fill="#111111"/>
<path d="M374.1 347.9C384.428 347.9 392.8 339.528 392.8 329.2C392.8 318.872 384.428 310.5 374.1 310.5C363.772 310.5 355.4 318.872 355.4 329.2C355.4 339.528 363.772 347.9 374.1 347.9Z" fill="#A66F00"/>
<path d="M141 347.9C151.328 347.9 159.7 339.528 159.7 329.2C159.7 318.872 151.328 310.5 141 310.5C130.672 310.5 122.3 318.872 122.3 329.2C122.3 339.528 130.672 347.9 141 347.9Z" fill="#A66F00"/>
</g>
<defs>
<clipPath id="clip0_106_27">
<rect width="504" height="504" fill="white"/>
</clipPath>
</defs>
</svg>
