<svg width="344" height="51" viewBox="0 0 344 51" fill="none" xmlns="http://www.w3.org/2000/svg">
<path d="M15.5999 50.576C12.8265 50.576 10.3305 50.0853 8.11188 49.104C5.93588 48.08 4.20788 46.7147 2.92788 45.008C1.64788 43.2587 0.965216 41.3173 0.879883 39.184H8.43188C8.55988 40.6773 9.26388 41.936 10.5439 42.96C11.8666 43.9413 13.5092 44.432 15.4719 44.432C17.5199 44.432 19.0985 44.048 20.2079 43.28C21.3599 42.4693 21.9359 41.4453 21.9359 40.208C21.9359 38.8853 21.2959 37.904 20.0159 37.264C18.7786 36.624 16.7946 35.92 14.0639 35.152C11.4186 34.4267 9.26388 33.7227 7.59988 33.04C5.93588 32.3573 4.48522 31.312 3.24788 29.904C2.05322 28.496 1.45588 26.64 1.45588 24.336C1.45588 22.4587 2.01055 20.752 3.11988 19.216C4.22922 17.6373 5.80788 16.4 7.85588 15.504C9.94655 14.608 12.3359 14.16 15.0239 14.16C19.0346 14.16 22.2559 15.184 24.6879 17.232C27.1626 19.2373 28.4852 21.9893 28.6559 25.488H21.3599C21.2319 23.9093 20.5919 22.6507 19.4399 21.712C18.2879 20.7733 16.7306 20.304 14.7679 20.304C12.8479 20.304 11.3759 20.6667 10.3519 21.392C9.32788 22.1173 8.81588 23.0773 8.81588 24.272C8.81588 25.2107 9.15722 26 9.83988 26.64C10.5225 27.28 11.3545 27.792 12.3359 28.176C13.3172 28.5173 14.7679 28.9653 16.6879 29.52C19.2479 30.2027 21.3386 30.9067 22.9599 31.632C24.6239 32.3147 26.0532 33.3387 27.2479 34.704C28.4425 36.0693 29.0612 37.8827 29.1039 40.144C29.1039 42.1493 28.5492 43.9413 27.4399 45.52C26.3306 47.0987 24.7519 48.336 22.7039 49.232C20.6986 50.128 18.3306 50.576 15.5999 50.576Z" fill="white"/>
<path d="M34.5554 32.336C34.5554 28.7093 35.2807 25.5307 36.7314 22.8C38.2247 20.0267 40.2727 17.8933 42.8754 16.4C45.478 14.9067 48.4647 14.16 51.8354 14.16C56.1021 14.16 59.6221 15.184 62.3954 17.232C65.2114 19.2373 67.1101 22.1173 68.0914 25.872H60.2194C59.5794 24.1227 58.5554 22.7573 57.1474 21.776C55.7394 20.7947 53.9687 20.304 51.8354 20.304C48.8487 20.304 46.4594 21.3707 44.6674 23.504C42.918 25.5947 42.0434 28.5387 42.0434 32.336C42.0434 36.1333 42.918 39.0987 44.6674 41.232C46.4594 43.3653 48.8487 44.432 51.8354 44.432C56.0594 44.432 58.854 42.576 60.2194 38.864H68.0914C67.0674 42.448 65.1474 45.3067 62.3314 47.44C59.5154 49.5307 56.0167 50.576 51.8354 50.576C48.4647 50.576 45.478 49.8293 42.8754 48.336C40.2727 46.8 38.2247 44.6667 36.7314 41.936C35.2807 39.1627 34.5554 35.9627 34.5554 32.336Z" fill="white"/>
<path d="M90.6584 50.576C87.3304 50.576 84.3224 49.8293 81.6344 48.336C78.9464 46.8 76.8344 44.6667 75.2984 41.936C73.7624 39.1627 72.9944 35.9627 72.9944 32.336C72.9944 28.752 73.7837 25.5733 75.3624 22.8C76.941 20.0267 79.0957 17.8933 81.8264 16.4C84.5571 14.9067 87.6077 14.16 90.9784 14.16C94.3491 14.16 97.3997 14.9067 100.13 16.4C102.861 17.8933 105.016 20.0267 106.594 22.8C108.173 25.5733 108.962 28.752 108.962 32.336C108.962 35.92 108.152 39.0987 106.53 41.872C104.909 44.6453 102.69 46.8 99.8744 48.336C97.101 49.8293 94.0291 50.576 90.6584 50.576ZM90.6584 44.24C92.5357 44.24 94.2851 43.792 95.9064 42.896C97.5704 42 98.9144 40.656 99.9384 38.864C100.962 37.072 101.474 34.896 101.474 32.336C101.474 29.776 100.984 27.6213 100.002 25.872C99.021 24.08 97.7197 22.736 96.0984 21.84C94.477 20.944 92.7277 20.496 90.8504 20.496C88.973 20.496 87.2237 20.944 85.6024 21.84C84.0237 22.736 82.7651 24.08 81.8264 25.872C80.8877 27.6213 80.4184 29.776 80.4184 32.336C80.4184 36.1333 81.3784 39.0773 83.2984 41.168C85.2611 43.216 87.7144 44.24 90.6584 44.24Z" fill="white"/>
<path d="M131.471 50.576C128.143 50.576 125.135 49.8293 122.447 48.336C119.759 46.8 117.647 44.6667 116.111 41.936C114.575 39.1627 113.807 35.9627 113.807 32.336C113.807 28.752 114.596 25.5733 116.175 22.8C117.754 20.0267 119.908 17.8933 122.639 16.4C125.37 14.9067 128.42 14.16 131.791 14.16C135.162 14.16 138.212 14.9067 140.943 16.4C143.674 17.8933 145.828 20.0267 147.407 22.8C148.986 25.5733 149.775 28.752 149.775 32.336C149.775 35.92 148.964 39.0987 147.343 41.872C145.722 44.6453 143.503 46.8 140.687 48.336C137.914 49.8293 134.842 50.576 131.471 50.576ZM131.471 44.24C133.348 44.24 135.098 43.792 136.719 42.896C138.383 42 139.727 40.656 140.751 38.864C141.775 37.072 142.287 34.896 142.287 32.336C142.287 29.776 141.796 27.6213 140.815 25.872C139.834 24.08 138.532 22.736 136.911 21.84C135.29 20.944 133.54 20.496 131.663 20.496C129.786 20.496 128.036 20.944 126.415 21.84C124.836 22.736 123.578 24.08 122.639 25.872C121.7 27.6213 121.231 29.776 121.231 32.336C121.231 36.1333 122.191 39.0773 124.111 41.168C126.074 43.216 128.527 44.24 131.471 44.24Z" fill="white"/>
<path d="M165.499 20.688V40.208C165.499 41.5307 165.798 42.4907 166.395 43.088C167.035 43.6427 168.102 43.92 169.595 43.92H174.075V50H168.315C165.03 50 162.513 49.232 160.763 47.696C159.014 46.16 158.139 43.664 158.139 40.208V20.688H153.979V14.736H158.139V5.96801H165.499V14.736H174.075V20.688H165.499Z" fill="white"/>
<path d="M213.12 31.504C213.12 32.8267 213.035 34.0213 212.864 35.088H185.92C186.133 37.904 187.179 40.1653 189.056 41.872C190.933 43.5787 193.237 44.432 195.968 44.432C199.893 44.432 202.667 42.7893 204.288 39.504H212.16C211.093 42.7467 209.152 45.4133 206.336 47.504C203.563 49.552 200.107 50.576 195.968 50.576C192.597 50.576 189.568 49.8293 186.88 48.336C184.235 46.8 182.144 44.6667 180.608 41.936C179.115 39.1627 178.368 35.9627 178.368 32.336C178.368 28.7093 179.093 25.5307 180.544 22.8C182.037 20.0267 184.107 17.8933 186.752 16.4C189.44 14.9067 192.512 14.16 195.968 14.16C199.296 14.16 202.261 14.8853 204.864 16.336C207.467 17.7867 209.493 19.8347 210.944 22.48C212.395 25.0827 213.12 28.0907 213.12 31.504ZM205.504 29.2C205.461 26.512 204.501 24.3573 202.624 22.736C200.747 21.1147 198.421 20.304 195.648 20.304C193.131 20.304 190.976 21.1147 189.184 22.736C187.392 24.3147 186.325 26.4693 185.984 29.2H205.504Z" fill="white"/>
<path d="M227.596 19.856C228.663 18.064 230.071 16.6773 231.82 15.696C233.612 14.672 235.724 14.16 238.156 14.16V21.712H236.3C233.441 21.712 231.265 22.4373 229.772 23.888C228.321 25.3387 227.596 27.856 227.596 31.44V50H220.3V14.736H227.596V19.856Z" fill="white"/>
<path d="M252.158 44.112H267.198V50H244.862V5.52001H252.158V44.112Z" fill="white"/>
<path d="M277.012 10.064C275.689 10.064 274.58 9.61601 273.684 8.72001C272.788 7.82401 272.34 6.71468 272.34 5.39201C272.34 4.06934 272.788 2.96001 273.684 2.06401C274.58 1.16801 275.689 0.720009 277.012 0.720009C278.292 0.720009 279.38 1.16801 280.276 2.06401C281.172 2.96001 281.62 4.06934 281.62 5.39201C281.62 6.71468 281.172 7.82401 280.276 8.72001C279.38 9.61601 278.292 10.064 277.012 10.064ZM280.596 14.736V50H273.3V14.736H280.596Z" fill="white"/>
<path d="M304.959 20.688H298.431V50H291.071V20.688H286.911V14.736H291.071V12.24C291.071 8.18667 292.138 5.24267 294.271 3.40801C296.447 1.53068 299.839 0.59201 304.447 0.59201V6.67201C302.228 6.67201 300.671 7.09868 299.775 7.95201C298.879 8.76268 298.431 10.192 298.431 12.24V14.736H304.959V20.688Z" fill="white"/>
<path d="M343.745 31.504C343.745 32.8267 343.66 34.0213 343.489 35.088H316.545C316.758 37.904 317.804 40.1653 319.681 41.872C321.558 43.5787 323.862 44.432 326.593 44.432C330.518 44.432 333.292 42.7893 334.913 39.504H342.785C341.718 42.7467 339.777 45.4133 336.961 47.504C334.188 49.552 330.732 50.576 326.593 50.576C323.222 50.576 320.193 49.8293 317.505 48.336C314.86 46.8 312.769 44.6667 311.233 41.936C309.74 39.1627 308.993 35.9627 308.993 32.336C308.993 28.7093 309.718 25.5307 311.169 22.8C312.662 20.0267 314.732 17.8933 317.377 16.4C320.065 14.9067 323.137 14.16 326.593 14.16C329.921 14.16 332.886 14.8853 335.489 16.336C338.092 17.7867 340.118 19.8347 341.569 22.48C343.02 25.0827 343.745 28.0907 343.745 31.504ZM336.129 29.2C336.086 26.512 335.126 24.3573 333.249 22.736C331.372 21.1147 329.046 20.304 326.273 20.304C323.756 20.304 321.601 21.1147 319.809 22.736C318.017 24.3147 316.95 26.4693 316.609 29.2H336.129Z" fill="white"/>
</svg>
