<svg width="216" height="32" viewBox="0 0 216 32" fill="none" xmlns="http://www.w3.org/2000/svg">
<path d="M10 31.36C8.26672 31.36 6.70672 31.0533 5.32005 30.44C3.96005 29.8 2.88005 28.9467 2.08005 27.88C1.28005 26.7867 0.853382 25.5733 0.800049 24.24H5.52005C5.60005 25.1733 6.04005 25.96 6.84005 26.6C7.66672 27.2133 8.69338 27.52 9.92005 27.52C11.2 27.52 12.1867 27.28 12.88 26.8C13.6 26.2933 13.96 25.6533 13.96 24.88C13.96 24.0533 13.56 23.44 12.76 23.04C11.9867 22.64 10.7467 22.2 9.04005 21.72C7.38672 21.2667 6.04005 20.8267 5.00005 20.4C3.96005 19.9733 3.05338 19.32 2.28005 18.44C1.53338 17.56 1.16005 16.4 1.16005 14.96C1.16005 13.7867 1.50672 12.72 2.20005 11.76C2.89338 10.7733 3.88005 10 5.16005 9.43999C6.46672 8.88 7.96005 8.6 9.64005 8.6C12.1467 8.6 14.16 9.24 15.68 10.52C17.2267 11.7733 18.0534 13.4933 18.16 15.68H13.6C13.52 14.6933 13.12 13.9067 12.4 13.32C11.68 12.7333 10.7067 12.44 9.48005 12.44C8.28005 12.44 7.36005 12.6667 6.72005 13.12C6.08005 13.5733 5.76005 14.1733 5.76005 14.92C5.76005 15.5067 5.97338 16 6.40005 16.4C6.82672 16.8 7.34672 17.12 7.96005 17.36C8.57338 17.5733 9.48005 17.8533 10.68 18.2C12.28 18.6267 13.5867 19.0667 14.6 19.52C15.64 19.9467 16.5334 20.5867 17.2801 21.44C18.0267 22.2933 18.4134 23.4267 18.4401 24.84C18.4401 26.0933 18.0934 27.2133 17.4 28.2C16.7067 29.1867 15.72 29.96 14.44 30.52C13.1867 31.08 11.7067 31.36 10 31.36Z" fill="white"/>
<path d="M21.8472 19.96C21.8472 17.6933 22.3006 15.7067 23.2072 14C24.1406 12.2667 25.4206 10.9333 27.0472 9.99999C28.6739 9.06666 30.5406 8.6 32.6472 8.6C35.3139 8.6 37.5139 9.24 39.2472 10.52C41.0072 11.7733 42.1939 13.5733 42.8072 15.92H37.8872C37.4872 14.8267 36.8472 13.9733 35.9672 13.36C35.0872 12.7467 33.9806 12.44 32.6472 12.44C30.7806 12.44 29.2872 13.1067 28.1672 14.44C27.0739 15.7467 26.5272 17.5867 26.5272 19.96C26.5272 22.3333 27.0739 24.1867 28.1672 25.52C29.2872 26.8533 30.7806 27.52 32.6472 27.52C35.2872 27.52 37.0339 26.36 37.8872 24.04H42.8072C42.1672 26.28 40.9672 28.0667 39.2072 29.4C37.4472 30.7067 35.2606 31.36 32.6472 31.36C30.5406 31.36 28.6739 30.8933 27.0472 29.96C25.4206 29 24.1406 27.6667 23.2072 25.96C22.3006 24.2267 21.8472 22.2267 21.8472 19.96Z" fill="white"/>
<path d="M56.9116 31.36C54.8316 31.36 52.9516 30.8933 51.2716 29.96C49.5916 29 48.2716 27.6667 47.3116 25.96C46.3516 24.2267 45.8716 22.2267 45.8716 19.96C45.8716 17.72 46.3649 15.7333 47.3516 14C48.3383 12.2667 49.6849 10.9333 51.3916 9.99999C53.0983 9.06666 55.0049 8.6 57.1116 8.6C59.2183 8.6 61.1249 9.06666 62.8316 9.99999C64.5383 10.9333 65.8849 12.2667 66.8716 14C67.8583 15.7333 68.3516 17.72 68.3516 19.96C68.3516 22.2 67.8449 24.1867 66.8316 25.92C65.8183 27.6533 64.4316 29 62.6716 29.96C60.9383 30.8933 59.0183 31.36 56.9116 31.36ZM56.9116 27.4C58.0849 27.4 59.1783 27.12 60.1916 26.56C61.2316 26 62.0716 25.16 62.7116 24.04C63.3516 22.92 63.6716 21.56 63.6716 19.96C63.6716 18.36 63.3649 17.0133 62.7516 15.92C62.1383 14.8 61.3249 13.96 60.3116 13.4C59.2983 12.84 58.2049 12.56 57.0316 12.56C55.8583 12.56 54.7649 12.84 53.7516 13.4C52.7649 13.96 51.9783 14.8 51.3916 15.92C50.8049 17.0133 50.5116 18.36 50.5116 19.96C50.5116 22.3333 51.1116 24.1733 52.3116 25.48C53.5383 26.76 55.0716 27.4 56.9116 27.4Z" fill="white"/>
<path d="M82.4194 31.36C80.3394 31.36 78.4594 30.8933 76.7794 29.96C75.0994 29 73.7794 27.6667 72.8194 25.96C71.8594 24.2267 71.3794 22.2267 71.3794 19.96C71.3794 17.72 71.8728 15.7333 72.8594 14C73.8461 12.2667 75.1928 10.9333 76.8994 9.99999C78.6061 9.06666 80.5128 8.6 82.6194 8.6C84.7261 8.6 86.6328 9.06666 88.3394 9.99999C90.0461 10.9333 91.3928 12.2667 92.3794 14C93.3661 15.7333 93.8594 17.72 93.8594 19.96C93.8594 22.2 93.3528 24.1867 92.3394 25.92C91.3261 27.6533 89.9394 29 88.1794 29.96C86.4461 30.8933 84.5261 31.36 82.4194 31.36ZM82.4194 27.4C83.5928 27.4 84.6861 27.12 85.6994 26.56C86.7394 26 87.5794 25.16 88.2194 24.04C88.8594 22.92 89.1794 21.56 89.1794 19.96C89.1794 18.36 88.8728 17.0133 88.2594 15.92C87.6461 14.8 86.8328 13.96 85.8194 13.4C84.8061 12.84 83.7128 12.56 82.5394 12.56C81.3661 12.56 80.2728 12.84 79.2594 13.4C78.2728 13.96 77.4861 14.8 76.8994 15.92C76.3128 17.0133 76.0194 18.36 76.0194 19.96C76.0194 22.3333 76.6194 24.1733 77.8194 25.48C79.0461 26.76 80.5794 27.4 82.4194 27.4Z" fill="white"/>
<path d="M103.687 12.68V24.88C103.687 25.7067 103.874 26.3067 104.247 26.68C104.647 27.0267 105.314 27.2 106.247 27.2H109.047V31H105.447C103.394 31 101.821 30.52 100.727 29.56C99.6339 28.6 99.0872 27.04 99.0872 24.88V12.68H96.4872V8.96H99.0872V3.47999H103.687V8.96H109.047V12.68H103.687Z" fill="white"/>
<path d="M133.45 19.44C133.45 20.2667 133.397 21.0133 133.29 21.68H116.45C116.583 23.44 117.237 24.8533 118.41 25.92C119.583 26.9867 121.023 27.52 122.73 27.52C125.183 27.52 126.917 26.4933 127.93 24.44H132.85C132.183 26.4667 130.97 28.1333 129.21 29.44C127.477 30.72 125.317 31.36 122.73 31.36C120.623 31.36 118.73 30.8933 117.05 29.96C115.397 29 114.09 27.6667 113.13 25.96C112.197 24.2267 111.73 22.2267 111.73 19.96C111.73 17.6933 112.183 15.7067 113.09 14C114.023 12.2667 115.317 10.9333 116.97 9.99999C118.65 9.06666 120.57 8.6 122.73 8.6C124.81 8.6 126.663 9.05333 128.29 9.96C129.917 10.8667 131.183 12.1467 132.09 13.8C132.997 15.4267 133.45 17.3067 133.45 19.44ZM128.69 18C128.663 16.32 128.063 14.9733 126.89 13.96C125.717 12.9467 124.263 12.44 122.53 12.44C120.957 12.44 119.61 12.9467 118.49 13.96C117.37 14.9467 116.703 16.2933 116.49 18H128.69Z" fill="white"/>
<path d="M142.498 12.16C143.164 11.04 144.044 10.1733 145.138 9.56C146.258 8.92 147.578 8.6 149.098 8.6V13.32H147.938C146.151 13.32 144.791 13.7733 143.858 14.68C142.951 15.5867 142.498 17.16 142.498 19.4V31H137.938V8.96H142.498V12.16Z" fill="white"/>
<path d="M157.849 27.32H167.249V31H153.289V3.19999H157.849V27.32Z" fill="white"/>
<path d="M173.383 6.04C172.556 6.04 171.863 5.75999 171.303 5.19999C170.743 4.63999 170.463 3.94666 170.463 3.11999C170.463 2.29333 170.743 1.59999 171.303 1.04C171.863 0.479994 172.556 0.199994 173.383 0.199994C174.183 0.199994 174.863 0.479994 175.423 1.04C175.983 1.59999 176.263 2.29333 176.263 3.11999C176.263 3.94666 175.983 4.63999 175.423 5.19999C174.863 5.75999 174.183 6.04 173.383 6.04ZM175.623 8.96V31H171.063V8.96H175.623Z" fill="white"/>
<path d="M190.849 12.68H186.769V31H182.169V12.68H179.569V8.96H182.169V7.39999C182.169 4.86666 182.836 3.02666 184.169 1.87999C185.529 0.706661 187.649 0.119995 190.529 0.119995V3.91999C189.143 3.91999 188.169 4.18666 187.609 4.72C187.049 5.22666 186.769 6.11999 186.769 7.39999V8.96H190.849V12.68Z" fill="white"/>
<path d="M215.091 19.44C215.091 20.2667 215.037 21.0133 214.931 21.68H198.091C198.224 23.44 198.877 24.8533 200.051 25.92C201.224 26.9867 202.664 27.52 204.371 27.52C206.824 27.52 208.557 26.4933 209.571 24.44H214.491C213.824 26.4667 212.611 28.1333 210.851 29.44C209.117 30.72 206.957 31.36 204.371 31.36C202.264 31.36 200.371 30.8933 198.691 29.96C197.037 29 195.731 27.6667 194.771 25.96C193.837 24.2267 193.371 22.2267 193.371 19.96C193.371 17.6933 193.824 15.7067 194.731 14C195.664 12.2667 196.957 10.9333 198.611 9.99999C200.291 9.06666 202.211 8.6 204.371 8.6C206.451 8.6 208.304 9.05333 209.931 9.96C211.557 10.8667 212.824 12.1467 213.731 13.8C214.637 15.4267 215.091 17.3067 215.091 19.44ZM210.331 18C210.304 16.32 209.704 14.9733 208.531 13.96C207.357 12.9467 205.904 12.44 204.171 12.44C202.597 12.44 201.251 12.9467 200.131 13.96C199.011 14.9467 198.344 16.2933 198.131 18H210.331Z" fill="white"/>
</svg>
